<svg height="512" viewBox="0 0 64 64" width="512" xmlns="http://www.w3.org/2000/svg"><g id="logistic"><path d="m10 52h16v2h-16z"/><path d="m19 28a1 1 0 0 0 -1 1v13a1 1 0 0 1 -.67.94.983.983 0 0 1 -1.11-.32l-8-10a.977.977 0 0 1 -.22-.62v-20a2 2 0 0 0 -4 0v28.65l7.48 9.35h12.87l3.54-7.96-7.49-14.04z"/><path d="m32 20a.991.991 0 0 1 .55.17l4.45 2.96v-19.13h-10v19.13l4.45-2.96a.991.991 0 0 1 .55-.17z"/><path d="m10.39 60h13.61v-4h-12.28z"/><path d="m34.12 41.53 8-15a.984.984 0 0 1 .88-.53h2a3.009 3.009 0 0 1 3 3v10.15l6-7.5v-19.65a4 4 0 0 1 1-2.62v-4.38a1 1 0 0 0 -1-1h-15v21a.984.984 0 0 1 -.53.88.977.977 0 0 1 -1.02-.05l-5.45-3.63-5.45 3.63a.963.963 0 0 1 -1.02.05.984.984 0 0 1 -.53-.88v-21h-15a1 1 0 0 0 -1 1v4.38a4 4 0 0 1 1 2.62v19.65l6 7.5v-10.15a3.009 3.009 0 0 1 3-3h2a.984.984 0 0 1 .88.53l8 15a.974.974 0 0 1 .03.88l-1.15 2.59h6.48l-1.15-2.59a.974.974 0 0 1 .03-.88z"/><path d="m58 10a2.006 2.006 0 0 0 -2 2v20a.977.977 0 0 1 -.22.62l-8 10a.983.983 0 0 1 -1.11.32 1 1 0 0 1 -.67-.94v-13a1 1 0 0 0 -1-1h-1.4l-7.49 14.04 3.54 7.96h12.87l7.48-9.35v-28.65a2.006 2.006 0 0 0 -2-2z"/><path d="m40 56v4h13.61l-1.33-4z"/><path d="m38 52h16v2h-16z"/></g></svg>